<?xml version="1.0" encoding="UTF-8"?>
<svg width="748px" height="240px" viewBox="0 0 748 240" version="1.1" xmlns="http://www.w3.org/2000/svg" xmlns:xlink="http://www.w3.org/1999/xlink">
    <title>logotype_horizontal_1_color+gray@1,5x</title>
    <defs>
        <filter color-interpolation-filters="auto" id="filter-1">
            <feColorMatrix in="SourceGraphic" type="matrix" values="0 0 0 0 0.129412 0 0 0 0 0.129412 0 0 0 0 0.137255 0 0 0 1.000000 0"></feColorMatrix>
        </filter>
        <linearGradient x1="0%" y1="100%" x2="100%" y2="0%" id="linearGradient-2">
            <stop stop-color="#F9240A" offset="0%"></stop>
            <stop stop-color="#FB592F" offset="100%"></stop>
        </linearGradient>
    </defs>
    <g id="logotype_horizontal_1_color+gray" stroke="none" stroke-width="1" fill="none" fill-rule="evenodd">
        <g id="Group-4" transform="translate(0.000000, -0.000000)">
            <g id="Group" transform="translate(288.000000, 72.000000)" filter="url(#filter-1)">
                <g>
                    <path d="M27.1867199,96.2179046 C4.08166084,96.2179046 0,83.1753931 0,60.0667055 C0,31.5294616 10.3327959,23.3755096 34.7973498,23.3755096 C55.1802429,23.3755096 69.4485856,28.8104188 69.4485856,51.9127535 C69.4485856,60.0667055 66.4596029,65.5047911 58.3058104,65.5047911 L16.4505226,65.5047911 C16.4505226,76.377786 18.3500036,83.9853883 31.9417754,83.9853883 L67.1393503,83.9853883 L67.1393503,96.2179046 L27.1867199,96.2179046 Z M49.4722705,53.2722749 C52.597838,53.2722749 53.0075923,51.0995818 53.0075923,49.0602996 C53.0075923,39.5468262 44.3106371,35.6048494 34.7973498,35.6048494 C21.205578,35.6048494 16.4505226,41.0397586 16.4505226,53.2722749 L49.4722705,53.2722749 Z" id="Fill-4" fill="#212123"></path>
                    <path d="M94.4521729,96.2210811 C86.2983804,96.2210811 80.590408,92.8222775 80.590408,81.9492827 L80.590408,15.358145 C80.590408,4.48197364 86.2983804,1.089523 94.4521729,1.089523 L131.282412,1.089523 C163.621236,1.089523 168.786046,25.5513791 168.786046,48.6537138 C168.786046,71.7560485 163.621236,96.2210811 133.725056,96.2210811 L94.4521729,96.2210811 Z M105.321779,15.358145 C99.8837994,15.358145 98.527481,16.7176664 98.527481,22.1525756 L98.527481,75.154852 C98.527481,80.5897612 99.8837994,81.9492827 105.321779,81.9492827 L125.028101,81.9492827 C146.773665,81.9492827 150.30581,67.6806607 150.30581,48.6537138 C150.30581,29.6235904 146.773665,15.358145 125.028101,15.358145 L105.321779,15.358145 Z" id="Fill-6" fill="#212123"></path>
                    <path d="M181.287681,14.6783842 L197.188688,14.6783842 L197.188688,9.66338121e-13 L181.287681,9.66338121e-13 L181.287681,14.6783842 Z M181.287681,96.2179046 L197.188688,96.2179046 L197.188688,24.1918577 L181.287681,24.1918577 L181.287681,96.2179046 Z" id="Fill-8" fill="#212123"></path>
                    <path d="M237.819477,96.2179046 C214.717595,96.2179046 208.326699,81.8126952 208.326699,60.0667055 C208.326699,38.3207158 214.717595,24.1886812 237.819477,24.1886812 L264.59009,24.1886812 C272.747059,24.1886812 276.822367,28.264069 276.822367,36.4211975 L276.822367,90.646408 C276.822367,111.032876 267.445665,120 245.7001,120 L213.3581,120 L213.3581,107.767484 L245.7001,107.767484 C253.853893,107.767484 259.835035,104.098682 260.924537,96.2179046 L237.819477,96.2179046 Z M241.761377,36.4211975 C226.403533,36.4211975 224.774045,46.4778442 224.774045,60.0667055 C224.774045,73.6555667 226.403533,83.9853883 241.761377,83.9853883 L260.924537,83.9853883 L260.924537,40.4997618 C260.924537,37.7807189 259.561865,36.4211975 256.846052,36.4211975 L241.761377,36.4211975 Z" id="Fill-10" fill="#212123"></path>
                    <path d="M290.136205,14.6783842 L306.034036,14.6783842 L306.034036,0 L290.136205,0 L290.136205,14.6783842 Z M290.136205,96.2179046 L306.034036,96.2179046 L306.034036,24.1918577 L290.136205,24.1918577 L290.136205,96.2179046 Z" id="Fill-11" fill="#212123"></path>
                    <path d="M349.521988,96.2179046 C333.214403,96.2179046 323.021368,90.3732331 323.021368,72.7058076 L323.021368,36.4211975 L313.101503,36.4211975 L313.101503,24.1918577 L323.021368,24.1918577 L323.021368,1.08634655 L338.925552,1.08634655 L338.925552,24.1918577 L359.445029,24.1918577 L359.445029,36.4211975 L338.925552,36.4211975 L338.925552,69.446768 C338.925552,80.3165864 344.633524,83.9853883 355.50313,83.9853883 L359.445029,83.9853883 L359.445029,96.2179046 L349.521988,96.2179046 Z" id="Fill-12" fill="#212123"></path>
                    <path d="M410.538529,24.192493 C424.127125,24.192493 430.788014,33.1564403 430.788014,45.392133 L430.788014,83.9860236 C430.788014,92.1431521 426.70953,96.2185399 418.555737,96.2185399 L382.275013,96.2185399 C370.03956,96.2185399 364.328411,88.7443486 364.328411,73.7927895 C364.328411,60.2039282 370.03956,51.3702155 382.275013,51.3702155 L414.887007,51.3702155 L414.887007,46.748478 C414.887007,39.9572238 411.624855,36.4218328 404.830557,36.4218328 L369.632982,36.4218328 L369.632982,24.192493 L410.538529,24.192493 Z M388.386387,63.5995553 C382.951584,63.5995553 380.772581,67.0015353 380.772581,73.7927895 C380.772581,80.5903965 382.951584,83.9860236 388.386387,83.9860236 L410.808522,83.9860236 C413.527512,83.9860236 414.887007,82.6265022 414.887007,79.9074594 L414.887007,63.5995553 L388.386387,63.5995553 Z" id="Fill-13" fill="#212123"></path>
                    <polygon id="Fill-14" fill="#212123" points="444.098993 96.2179046 460 96.2179046 460 1.089523 444.098993 1.089523"></polygon>
                </g>
            </g>
            <path d="M3.93449696,31.2785294 C4.91027954,33.1143433 6.7165778,36.658484 8.85707673,39.5878537 C45.1036156,89.1491631 93.2421307,128.474677 145.567961,159.929988 C147.356442,161.046208 149.068273,162.083103 150.663711,162.998177 C150.723327,163.035007 150.782943,163.074669 150.839721,163.108666 C150.842559,163.108666 150.836882,163.100167 150.836882,163.100167 C153.357788,164.542187 155.603324,165.709402 157.369094,166.42333 C159.8389,167.610376 163.478316,168.709598 166.183748,168.842751 C172.193043,169.137594 176.086972,166.649586 180.517418,160.032709 L180.764123,159.660849 L180.832255,159.65235 C184.187785,154.377218 186.938639,149.694192 189.760464,144.512551 C190.356624,143.413329 190.876135,143.418995 191.174215,143.495487 C191.980451,143.696634 191.920835,144.767525 191.912318,144.931842 C190.773936,162.420236 188.661826,180.412912 186.106853,193.260776 C184.778268,199.935433 181.993348,212.052371 177.979203,220.103889 C173.150306,229.778741 164.980072,239.827556 153.039835,239.997539 C147.643166,240.071198 142.533222,238.481859 138.348745,236.544055 C133.44036,234.277618 129.01458,231.090441 125.113989,227.350821 C71.6757239,176.184392 29.4587353,113.161589 2.61411712,42.7081435 L1.80535346,40.5709207 L1.82806433,40.5425903 C0.820269738,37.7832033 0.184365547,34.8481675 0.0197117832,31.7771455 C0.0140340672,31.6524914 -0.102359111,30.5476034 0.303597583,30.0348221 C0.445540483,29.8506741 0.797455381,29.5137694 1.20341207,29.425945 C1.95287058,29.2587953 2.95871438,29.4427154 3.93449696,31.2785294 Z M204.285145,52.1215332 C220.617095,52.1215332 231.149258,55.6798392 235.844729,63.89284 C238.161237,67.9384299 239.594861,72.5619612 239.915652,77.4517989 C240.131405,80.7352994 240.131405,85.871612 237.406101,97.101807 C229.096764,131.308006 214.0423,163.154278 197.346976,193.516034 C196.946697,194.244127 196.276726,195.507665 195.456296,196.190429 C194.877169,196.672047 194.190166,196.616 193.815788,196.386433 C193.44141,196.156867 193.179532,195.499166 193.179532,194.697414 C193.176693,193.618023 193.523034,192.343153 194.190166,189.694254 C202.672673,155.958341 207.788296,122.491567 209.261663,87.5232779 C209.261663,87.5232779 209.301407,86.2455741 209.309923,86.0755914 C209.670414,78.7020575 205.910151,71.158321 197.47944,67.5897273 L197.074446,67.4228155 L197.057412,67.3859859 C188.191659,63.3290638 179.053375,59.779257 169.687982,56.7252332 C169.432485,56.6374088 169.174149,56.5552504 168.915813,56.4730921 C168.223132,56.2492815 167.646844,55.7733297 167.768914,55.0084072 C167.876791,54.3511405 168.492823,53.9318497 169.219571,53.8695227 C169.432485,53.8496914 169.6454,53.8326931 169.858314,53.8128618 C181.30175,52.8326278 192.78777,52.1215332 204.285145,52.1215332 Z M137.070958,71.3027558 L137.273857,71.3065118 L137.273857,71.3065118 L137.478809,71.3164141 L137.489758,71.3054875 C153.135227,71.9845651 168.015066,75.6597073 181.587801,81.7444503 L182.471121,82.1446916 L182.476595,82.1610815 C185.761305,83.666223 188.066076,86.9442081 188.123559,90.7903773 C188.13529,91.6075322 188.040435,92.4006039 187.857957,93.1592711 L187.759503,93.5356898 L187.764978,93.5493481 C184.660397,104.358768 180.079236,114.549089 174.254689,123.895019 L173.668099,124.826789 L173.635252,124.832253 C172.159869,127.176012 169.567686,128.754908 166.586812,128.795883 C164.41004,128.829704 162.419476,128.033498 160.90123,126.706948 L160.677072,126.504025 L160.628828,126.464416 L160.628828,126.464416 L160.586742,126.424807 L160.553895,126.392027 C147.543371,114.119328 137.251523,98.9384059 130.703655,81.9346356 L130.356464,81.0219817 C130.09095,80.2707767 129.929451,79.4758654 129.918502,78.6427108 C129.863757,74.6463006 133.063612,71.3601205 137.070958,71.3027558 Z M29.7476649,0.00849913846 C30.326792,0 31.0081179,-0.00849913846 31.5815672,0.0169982769 C93.9484385,2.7253904 153.396964,16.8452924 207.962653,40.2349215 C208.937221,40.6515243 210.436168,41.4668377 210.162745,42.633005 C209.889321,43.7991723 208.065251,43.6858226 207.12519,43.5977472 C188.857139,41.9120848 170.447145,41.1188319 152.076895,41.251985 C135.188529,41.370973 118.144025,42.2718816 101.42599,43.9263806 C101.42599,43.9263806 101.421883,43.9269631 101.413938,43.9280947 L101.322355,43.9412038 C101.077894,43.9763319 100.434036,44.0697763 99.748511,44.1769124 L99.3726059,44.2364399 C98.7463773,44.3370214 98.1394664,44.4422129 97.8206408,44.5184872 C89.281356,46.5384492 85.2501776,52.4453504 86.0564133,59.8197695 C86.2522945,61.6102547 86.6383792,63.3384128 87.2203451,64.94475 L87.2203451,64.94475 L87.2089896,64.9589152 C88.0464528,67.1856895 88.9179822,69.3926325 89.8093836,71.5854102 C90.1131414,72.3248352 90.4282546,73.0529281 90.7348513,73.7866871 C91.3366892,75.2258745 91.9385271,76.6565628 92.5659147,78.081585 C92.9747102,79.0079911 93.3948612,79.923065 93.8093345,80.843805 C94.3600729,82.0506827 94.9108114,83.2575603 95.4729053,84.4531058 C95.9555111,85.4730024 96.4466336,86.4815669 96.9405949,87.4929643 C97.4657836,88.5695219 97.9938112,89.6404133 98.536033,90.7084717 C99.0782549,91.7850293 99.6261545,92.8530877 100.18541,93.9211461 C100.693565,94.8928809 101.207398,95.8589496 101.729748,96.8250184 C102.334425,97.9497377 102.940898,99.0860834 103.569328,100.196343 C105.266105,103.194073 105.266105,104.302001 104.186611,104.932481 C103.107118,105.562961 100.973711,104.302001 100.367096,103.890635 C74.7378865,86.490066 50.9482565,66.9788771 29.3218362,45.5582152 C21.8187346,38.1299682 9.43563598,24.0185653 10.4263974,12.9385218 C10.6506672,10.4511073 11.5562629,7.98635711 13.333388,5.91823341 C14.3866043,4.75668449 15.7691282,3.1673456 18.8890331,1.83864695 C21.2452852,0.841414707 24.6263651,0.0793252923 29.7476649,0.00849913846 Z" id="Combined-Shape-Copy-2" fill="url(#linearGradient-2)"></path>
        </g>
    </g>
</svg>